 <?xml version="1.0" standalone="no"?>
<!DOCTYPE svg PUBLIC "-//W3C//DTD SVG 20010904//EN"
 "http://www.w3.org/TR/2001/REC-SVG-20010904/DTD/svg10.dtd">
<svg version="1.0" xmlns="http://www.w3.org/2000/svg"
 width="900.000000pt" height="900.000000pt" viewBox="0 0 900.000000 900.000000"
 preserveAspectRatio="xMidYMid meet">

<g transform="translate(0.000000,900.000000) scale(0.100000,-0.100000)"
fill="#000000" stroke="none">
<path d="M1080 8424 c-245 -65 -432 -250 -500 -496 -20 -72 -20 -91 -20 -3428
0 -3709 -6 -3399 64 -3545 72 -151 173 -254 321 -326 164 -79 -188 -72 3555
-72 3741 0 3390 -7 3555 72 146 70 243 167 316 316 79 163 72 -185 71 3555 0
2501 -3 3358 -11 3395 -62 264 -255 462 -517 530 -51 13 -452 15 -3419 14
-2914 0 -3367 -2 -3415 -15z m3665 -1865 c228 -27 476 -103 686 -210 617 -314
1021 -879 1123 -1570 20 -134 21 -407 2 -549 -93 -686 -525 -1290 -1141 -1590
-296 -144 -581 -209 -914 -210 -335 0 -626 67 -921 214 -926 459 -1373 1525
-1049 2504 232 703 822 1232 1534 1376 252 51 459 62 680 35z m2575 -3436 c83
-76 150 -141 150 -144 0 -13 -142 -140 -212 -190 -102 -72 -235 -134 -353
-165 -130 -35 -316 -39 -410 -10 -82 25 -216 94 -327 167 -51 34 -121 74 -155
91 l-63 29 83 84 c46 46 112 119 147 164 36 45 68 77 74 74 6 -4 63 -39 127
-79 136 -85 202 -119 247 -127 44 -9 173 10 238 34 70 27 188 105 244 163 24
25 48 46 53 46 4 0 75 -62 157 -137z"/>
<path d="M4390 6189 c-94 -15 -215 -82 -296 -164 -111 -112 -164 -241 -164
-400 0 -159 53 -288 164 -400 227 -231 582 -232 811 -2 112 112 165 242 165
402 0 160 -53 290 -164 401 -140 139 -315 195 -516 163z"/>
<path d="M3296 5404 c-157 -38 -311 -162 -379 -304 -48 -103 -61 -168 -55
-287 13 -242 158 -429 393 -509 282 -95 604 59 711 340 39 104 45 256 14 357
-28 94 -52 141 -103 204 -141 174 -367 251 -581 199z"/>
<path d="M5440 5404 c-103 -22 -185 -69 -271 -154 -119 -117 -172 -244 -171
-410 1 -157 69 -312 184 -415 66 -59 120 -91 211 -123 104 -37 251 -36 356 1
136 49 221 114 295 225 114 173 128 404 33 587 -44 84 -163 201 -249 243 -121
59 -255 75 -388 46z"/>
<path d="M4181 4904 c-26 -33 -27 -58 -1 -84 20 -20 65 -26 86 -12 13 9 34 46
34 62 0 20 -49 60 -74 60 -15 0 -33 -11 -45 -26z"/>
<path d="M4710 4910 c-41 -41 -10 -110 48 -110 36 0 62 28 62 67 0 57 -69 84
-110 43z"/>
<path d="M4427 4622 c-39 -24 -71 -93 -63 -136 21 -111 158 -154 233 -73 43
48 51 94 24 149 -11 24 -34 51 -50 61 -37 22 -108 21 -144 -1z"/>
<path d="M4027 4409 c-36 -28 -34 -73 4 -102 43 -31 99 -2 99 52 0 59 -57 87
-103 50z"/>
<path d="M4887 4419 c-25 -15 -38 -54 -27 -83 17 -46 96 -51 119 -7 17 30 13
50 -14 76 -26 27 -49 31 -78 14z"/>
<path d="M3691 4144 c-186 -50 -338 -194 -397 -377 -119 -368 154 -747 538
-747 168 0 292 51 408 169 87 88 123 148 150 257 25 98 25 190 0 288 -27 108
-63 169 -150 257 -118 120 -238 170 -406 168 -49 0 -113 -7 -143 -15z"/>
<path d="M5015 4145 c-199 -55 -359 -216 -409 -411 -20 -79 -20 -209 0 -288
50 -196 214 -360 410 -411 75 -19 213 -19 288 0 197 51 359 214 410 411 20 77
20 212 1 284 -54 203 -213 363 -411 414 -75 19 -220 20 -289 1z"/>
<path d="M4462 4108 c-46 -23 -41 -98 9 -118 27 -11 33 -11 57 7 39 29 41 74
6 102 -30 23 -39 25 -72 9z"/>
</g>
</svg>
